# xmcd
#
# Track frame offsets:
#	150
#	23497
#	49447
#	72482
#	92460
#	123417
#	145712
#	165242
#	192695
#	218455
#
# Disc length: 3304 seconds
#
# Revision: 4
# Processed by: cddbd v1.5PL3 Copyright (c) Steve Scherf et al.
# Submitted via: CDex 1.50Beta5
#
DISCID=850ce60a
DTITLE=バブルガム・ブラザーズ - BORN TO BE FUNKY「ファンキーでいこう!!」
DYEAR=1990
DGENRE=Pop
TTITLE0=あの娘のダンスにくびったけ
TTITLE1=THE蹴んなよ
TTITLE2=RETURN TO ME
TTITLE3=渚その後で
TTITLE4=WON’T BE LONG
TTITLE5=うちひしがれても
TTITLE6=天国へのパスポート
TTITLE7=青き獣たち
TTITLE8=恋にふるえて
TTITLE9=GIVE YOU MY LOVE
EXTD=
EXTT0=
EXTT1=
EXTT2=
EXTT3=
EXTT4=
EXTT5=
EXTT6=
EXTT7=
EXTT8=
EXTT9=
PLAYORDER=
